HIERARCHY
ROOT Hips
{
     OFFSET -4.38725 99.46970 1.21423
     CHANNELS 6 Xposition Yposition Zposition Zrotation Xrotation Yrotation
     JOINT Spine
     {
          OFFSET 0.00000 11.89050 0.00000
          CHANNELS 3 Zrotation Xrotation Yrotation
          JOINT Spine1
          {
               OFFSET 0.00000 25.65740 0.12766
               CHANNELS 3 Zrotation Xrotation Yrotation
               JOINT HEad
               {
                    OFFSET 0.00000 8.73416 0.01134
                    CHANNELS 3 Zrotation Xrotation Yrotation
                    End Site
                    {
                         OFFSET -0.29000 12.77420 2.51395
                    }
               }
               JOINT LeftShoulder1
               {
                    OFFSET 8.99000 -0.36225 -0.22000
                    CHANNELS 3 Zrotation Xrotation Yrotation
                    JOINT LeftArm
                    {
                         OFFSET 10.28270 -0.00338 0.32212
                         CHANNELS 3 Zrotation Xrotation Yrotation
                         JOINT LeftForeArm
                         {
                              OFFSET 32.76690 0.09914 -1.42434
                              CHANNELS 3 Zrotation Xrotation Yrotation
                              JOINT LeftHand
                              {
                                   OFFSET 27.56430 0.08536 1.02216
                                   CHANNELS 3 Zrotation Xrotation Yrotation
                                   End Site
                                   {
                                        OFFSET 16.74430 -0.60000 1.50291
                                   }
                              }
                         }
                    }
               }
               JOINT RightShoulder
               {
                    OFFSET -8.99000 -0.36225 -0.22000
                    CHANNELS 3 Zrotation Xrotation Yrotation
                    JOINT RightArm
                    {
                         OFFSET -10.28270 -0.00338 0.32212
                         CHANNELS 3 Zrotation Xrotation Yrotation
                         JOINT RightForeArm
                         {
                              OFFSET -32.89710 0.09914 -1.42434
                              CHANNELS 3 Zrotation Xrotation Yrotation
                              JOINT RightHand
                              {
                                   OFFSET -27.49210 0.08536 1.02216
                                   CHANNELS 3 Zrotation Xrotation Yrotation
                                   End Site
                                   {
                                        OFFSET -16.63120 -0.60000 1.50291
                                   }
                              }
                         }
                    }
               }
          }
     }
     JOINT LeftUpLeg
     {
          OFFSET 8.94580 -8.66707 0.10165
          CHANNELS 3 Zrotation Xrotation Yrotation
          JOINT LeftLeg
          {
               OFFSET 0.00000 -44.42270 1.37270
               CHANNELS 3 Zrotation Xrotation Yrotation
               JOINT LeftFoot
               {
                    OFFSET -0.25355 -42.09240 -1.46059
                    CHANNELS 3 Zrotation Xrotation Yrotation
                    JOINT LeftToes
                    {
                         OFFSET -0.04000 -4.41509 8.49910
                         CHANNELS 3 Zrotation Xrotation Yrotation
                         End Site
                         {
                              OFFSET 0.08000 -0.04745 9.77979
                         }
                    }
               }
          }
     }
     JOINT RightUpLeg
     {
          OFFSET -8.94580 -8.66707 0.10165
          CHANNELS 3 Zrotation Xrotation Yrotation
          JOINT RightLeg
          {
               OFFSET 0.00000 -44.42270 1.37270
               CHANNELS 3 Zrotation Xrotation Yrotation
               JOINT RightFoot
               {
                    OFFSET 0.25355 -42.09240 -1.46059
                    CHANNELS 3 Zrotation Xrotation Yrotation
                    JOINT RightToes
                    {
                         OFFSET 0.04000 -4.41509 8.49910
                         CHANNELS 3 Zrotation Xrotation Yrotation
                         End Site
                         {
                              OFFSET -0.08000 -0.13745 9.77979
                         }
                    }
               }
          }
     }
}
MOTION
Frames: 14
Frame Time: 0.01667
2.56811 91.82920 -10.19820 -0.53564 0.58374 -47.54490 1.24432 5.10290 4.45309 -1.28379 10.49570 8.98661 3.25035 -13.56060 39.04840 -0.00000 -0.00000 0.00000 -73.39750 -65.48440 -79.11690 -21.95540 34.88380 -88.90210 5.55594 9.67997 -0.87718 13.11820 1.16085 4.61349 68.95810 -43.54880 83.61690 27.09120 43.37550 88.45580 -5.55712 9.68432 0.87760 19.20410 -27.67600 7.95354 3.73094 37.63930 -22.04260 -22.06610 -15.57910 -1.49431 1.23302 -7.35006 -6.30228 -10.83980 -6.36318 -5.60489 -2.21938 42.47190 0.22235 4.30439 -24.26560 0.36214 -10.03960 -12.78060 1.55668 
2.89554 91.08620 -10.54720 -0.85781 1.60074 -48.02010 1.17622 5.43101 3.79111 -0.93636 11.15030 7.60743 5.25726 -17.14210 39.46670 -0.00000 -0.00000 0.00000 -61.31290 -69.19750 -71.75400 -20.18020 32.63200 -83.59970 5.55594 9.67997 -0.87718 14.80310 1.33109 5.03253 64.03100 -47.21770 81.03210 28.04060 43.46720 90.01040 -5.55712 9.68432 0.87760 21.56900 -29.53830 10.37190 3.98085 40.06030 -23.52390 -22.66700 -16.26180 -1.67529 1.38602 -5.30691 -6.85116 -9.99643 -9.02709 -6.21298 -3.92120 46.23720 4.19252 5.70336 -27.06750 0.70340 -7.65503 -9.60641 1.95951 
3.21517 90.27870 -11.03230 -1.42633 2.49138 -48.09610 1.05113 5.84439 2.91880 -0.33473 11.94870 5.77469 7.19967 -20.44620 40.22490 -0.00000 -0.00000 0.00000 -34.78610 -67.31000 -51.63570 -15.17730 23.50250 -75.46140 5.55594 9.67997 -0.87718 16.26830 1.50983 5.50257 58.14870 -49.82090 77.52130 28.02450 43.09540 91.67850 -5.55712 9.68432 0.87760 23.69110 -31.36240 12.24340 4.75017 42.40930 -25.26670 -22.99660 -16.35590 -1.72075 1.54392 -4.69088 -7.59585 -9.38835 -11.31610 -6.42636 -5.10884 50.18280 7.64932 7.72418 -30.07620 1.26234 -4.91212 -5.74610 2.52584 
3.52954 89.40030 -11.61510 -2.22441 3.03426 -47.72340 0.80729 6.37929 1.89521 0.39233 12.94460 3.59812 8.95217 -23.05150 41.51620 -0.00000 -0.00000 0.00000 -7.34910 -52.46870 -32.42450 -6.91684 3.44229 -62.62880 5.55594 9.67997 -0.87718 17.24790 1.65170 5.89354 52.35480 -50.80520 73.76160 27.41130 42.39650 92.96000 -5.55712 9.68432 0.87760 25.20750 -33.06790 13.20460 5.91668 44.66550 -26.99050 -22.87920 -15.76940 -1.59232 1.65993 -5.79242 -8.47917 -9.43650 -13.01260 -6.28014 -5.15481 54.31970 9.37121 9.66887 -32.66970 1.88923 -2.38816 -2.11811 2.86775 
3.82980 88.47610 -12.22300 -3.18480 3.08675 -47.09000 0.46121 7.02525 0.84187 1.03157 14.12470 1.31773 10.48120 -24.70790 43.33250 -0.00000 -0.00000 0.00000 7.46815 -34.73230 -26.92420 3.63487 -13.31000 -40.91910 5.55594 9.67997 -0.87718 17.74750 1.74246 6.17036 47.54670 -50.13880 70.53480 26.55730 41.54350 93.64240 -5.55712 9.68432 0.87760 25.94810 -34.47060 13.23790 7.32206 46.77390 -28.47670 -22.44820 -14.62130 -1.33246 1.71264 -8.34160 -9.55226 -10.43410 -13.97460 -5.97762 -3.74904 58.51380 8.59522 10.75080 -34.31770 2.30337 -0.68950 0.22308 2.79225 
4.09820 87.57190 -12.76290 -4.22671 2.70926 -46.57620 0.14675 7.71039 -0.09924 1.42576 15.37860 -0.72135 11.74750 -25.36100 45.41540 -0.00000 -0.00000 0.00000 16.92180 -22.73300 -27.00400 12.13450 -14.66130 -15.21070 5.55594 9.67997 -0.87718 17.90680 1.79097 6.35211 43.87970 -48.21590 68.02630 25.68690 40.71090 93.92510 -5.55712 9.68432 0.87760 26.15250 -35.34870 12.68830 8.65463 48.68250 -29.48470 -21.94950 -13.14580 -1.01615 1.68138 -11.82470 -10.82810 -12.32040 -14.18690 -5.69727 -1.29821 62.43330 5.64005 10.72040 -34.89370 2.35303 0.08107 1.08497 2.41055 
4.31552 86.73390 -13.17540 -5.26300 2.08648 -46.62930 -0.10366 8.34702 -0.77185 1.53976 16.56010 -2.17495 12.57110 -25.05850 47.33090 -0.00000 -0.00000 0.00000 22.45700 -18.28120 -29.14980 9.51545 -4.93323 0.43370 5.55594 9.67997 -0.87718 17.83340 1.80664 6.45624 40.93700 -45.57010 65.84660 24.97840 40.07760 94.18500 -5.55712 9.68432 0.87760 26.33870 -35.56720 12.06750 9.47301 50.44370 -29.71000 -21.52160 -11.60600 -0.70539 1.54042 -15.76540 -12.21140 -14.78530 -13.86310 -5.41539 1.08918 65.84450 1.89977 9.93891 -34.63050 2.13017 0.38268 1.22990 1.94864 
4.46733 86.04030 -13.46900 -6.27016 1.44550 -47.55480 -0.26722 8.87033 -1.06760 1.46320 17.55850 -2.84183 12.71520 -23.88490 48.67740 -0.00000 -0.00000 0.00000 24.43860 -17.50130 -31.44150 2.80911 3.39734 3.38604 5.55594 9.67997 -0.87718 17.62670 1.80003 6.50050 38.17910 -42.65450 63.45750 24.55050 39.75780 94.70710 -5.55712 9.68432 0.87760 26.99520 -35.01610 11.76390 9.35447 51.94990 -28.81960 -21.14880 -9.99712 -0.39662 1.26628 -20.02430 -13.67500 -17.43090 -13.29810 -4.95203 2.41488 68.54340 -1.14926 8.89651 -33.64250 1.78827 0.62710 1.36927 1.61459 
4.53549 85.55000 -13.67900 -7.24693 0.96377 -49.33210 -0.31435 9.25111 -0.99252 1.31403 18.31290 -2.73196 12.15560 -21.97390 49.31480 -0.00000 -0.00000 0.00000 23.70030 -17.74250 -32.68980 2.39344 3.88369 3.55783 5.55594 9.67997 -0.87718 17.49620 1.79380 6.51860 35.09530 -39.77100 60.36120 24.36290 39.70980 95.61530 -5.55712 9.68432 0.87760 28.27080 -33.70950 11.81530 8.12772 53.01170 -26.65550 -20.84300 -8.12970 -0.05415 0.82480 -24.63290 -15.38790 -20.01550 -12.71250 -4.15383 2.72513 70.38580 -3.09959 7.94643 -31.91950 1.43714 0.81308 1.57672 1.52834 
4.49435 85.29710 -13.87020 -8.15326 0.71881 -51.62970 -0.17123 9.46926 -0.64683 1.15463 18.78640 -2.03150 11.12660 -19.53540 49.38900 -0.00000 -0.00000 0.00000 21.39780 -18.16900 -32.42280 7.14895 -2.70212 1.51454 5.55594 9.67997 -0.87718 17.68100 1.80975 6.52842 31.29130 -37.04020 56.12740 24.18420 39.73530 96.98080 -5.55712 9.68432 0.87760 29.92660 -31.79820 11.91540 5.97982 53.38120 -23.39970 -20.79700 -5.93100 0.33875 0.18957 -29.27600 -17.49920 -22.49900 -12.16790 -3.06933 3.08963 71.32890 -4.73686 7.30638 -29.61960 1.14734 0.82468 1.67488 1.66150 
4.32528 85.31010 -14.12170 -8.91724 0.71129 -53.96080 0.23969 9.51713 -0.18357 1.01931 18.96160 -1.01901 9.86804 -16.85250 49.17020 -0.00000 -0.00000 0.00000 18.20440 -19.00970 -31.09560 13.78840 -9.06748 -1.63675 5.55594 9.67997 -0.87718 18.25160 1.84872 6.50792 26.69330 -34.30690 50.55060 23.60860 39.52350 98.93010 -5.55712 9.68432 0.87760 31.57100 -29.54300 11.64490 3.34592 52.83050 -19.52600 -21.12930 -3.53593 0.77688 -0.59753 -33.36740 -19.84710 -24.89740 -11.58310 -1.93015 4.58735 71.42590 -7.08680 7.07135 -27.14130 0.94999 0.73199 1.65615 1.84246 
4.02801 85.62230 -14.49990 -9.46347 0.87632 -55.90600 0.77759 9.42189 0.25357 0.90606 18.85630 0.03533 8.47199 -14.19940 48.90430 -0.00000 -0.00000 0.00000 13.95850 -21.48000 -29.74040 11.00840 -13.37640 -17.36990 5.55594 9.67997 -0.87718 19.08400 1.89593 6.43401 21.72970 -31.15980 43.91050 22.19340 38.72340 101.54400 -5.55712 9.68432 0.87760 32.87690 -27.19730 10.71960 0.69031 51.19820 -15.52750 -21.68970 -1.07041 1.25403 -1.40767 -36.54460 -22.00490 -27.17150 -10.81470 -0.93916 7.40942 70.73800 -10.48480 7.21082 -24.80280 0.83207 0.62919 1.57549 1.94655 
3.62312 86.27370 -15.08230 -9.78818 1.18804 -57.32930 1.36314 9.19934 0.59458 0.82831 18.49740 0.94795 6.99781 -11.72790 48.77350 -0.00000 -0.00000 0.00000 8.66863 -25.69720 -29.06430 5.49040 -12.08550 -32.36140 5.55594 9.67997 -0.87718 19.93650 1.93303 6.31197 17.37710 -27.27470 37.06190 19.85810 37.15930 104.53100 -5.55712 9.68432 0.87760 33.78960 -24.84090 9.11077 -1.59916 48.33810 -11.73830 -22.26100 1.46813 1.76927 -2.06539 -38.73410 -23.48400 -29.11970 -9.83146 -0.17647 10.81840 69.30880 -14.34260 7.52214 -22.52560 0.73655 0.39624 1.30448 2.03981 
3.13646 87.27850 -15.92740 -9.89763 1.63203 -58.32860 1.92926 8.86553 0.82007 0.76301 17.91840 1.63332 5.61715 -9.47684 48.92520 -0.00000 -0.00000 0.00000 2.79981 -30.47520 -29.14310 0.30716 -7.30982 -43.84190 5.55594 9.67997 -0.87718 20.56340 1.94710 6.16900 14.66780 -22.83540 31.05910 17.14530 35.07630 107.17100 -5.55712 9.68432 0.87760 34.36890 -22.42100 7.02073 -3.16864 44.18340 -8.42951 -22.71500 4.05230 2.30589 -2.35815 -39.83550 -23.77050 -30.50890 -8.74371 0.38469 13.67500 67.21190 -17.55800 7.85431 -19.95160 0.61237 -0.16544 0.63561 2.24129 
